<?xml version="1.0" encoding="UTF-8"?>
<svg id="Layer_2" data-name="Layer 2" xmlns="http://www.w3.org/2000/svg" xmlns:xlink="http://www.w3.org/1999/xlink" viewBox="0 0 64 64">
  <defs>
    <style>
      .cls-1 {
        clip-path: url(#clippath);
      }

      .cls-2 {
        fill: none;
      }

      .cls-2, .cls-3, .cls-4 {
        stroke-width: 0px;
      }

      .cls-3 {
        fill-rule: evenodd;
      }

      .cls-3, .cls-4 {
        fill: #d6e4e3;
      }
    </style>
    <clipPath id="clippath">
      <rect class="cls-2" width="64" height="64"/>
    </clipPath>
  </defs>
  <g id="Layer_1-2" data-name="Layer 1">
    <g class="cls-1">
      <g>
        <path class="cls-3" d="M32,60c15.46,0,28-12.54,28-28S47.46,4,32,4,4,16.54,4,32s12.54,28,28,28ZM32,64c17.67,0,32-14.33,32-32S49.67,0,32,0,0,14.33,0,32s14.33,32,32,32Z"/>
        <path class="cls-3" d="M10.93,33.37c4.14,3.54,10.55,6.88,18.3,8.95,7.75,2.08,14.98,2.39,20.33,1.4,5.67-1.06,7.83-3.23,8.25-4.81.42-1.58-.36-4.54-4.74-8.29-4.14-3.54-10.55-6.88-18.3-8.95-7.75-2.08-14.98-2.39-20.33-1.4-5.67,1.06-7.83,3.23-8.25,4.81-.42,1.58.36,4.54,4.74,8.29ZM2.33,24.05c-2.1,7.84,9.48,17.75,25.87,22.14,16.39,4.39,31.37,1.6,33.47-6.24,2.1-7.84-9.48-17.75-25.87-22.14-16.39-4.39-31.37-1.6-33.47,6.24Z"/>
        <path class="cls-4" d="M46.14,26.34c-2.34,2.34-6.14,2.34-8.49,0-2.34-2.34-2.34-6.14,0-8.49,2.34-2.34,6.14-2.34,8.49,0,2.34,2.34,2.34,6.14,0,8.49Z"/>
        <path class="cls-4" d="M22.81,44.02c-2.34,2.34-6.14,2.34-8.49,0-2.34-2.34-2.34-6.14,0-8.49,2.34-2.34,6.14-2.34,8.49,0,2.34,2.34,2.34,6.14,0,8.49Z"/>
      </g>
    </g>
  </g>
</svg>