<svg data-name="Layer 2" xmlns="http://www.w3.org/2000/svg" viewBox="0 0 50 50" xmlns:xlink="http://www.w3.org/1999/xlink"><defs><clipPath id="a"><circle class="cls-2" cx="25" cy="25" r="25"/></clipPath><clipPath id="b"><circle class="cls-2" cx="25" cy="25" r="25"/></clipPath><linearGradient id="c" x1="-.56" y1="9.92" x2="55.92" y2="43.09" gradientUnits="userSpaceOnUse"><stop offset="0" stop-color="#e6007a"/><stop offset="1" stop-color="#19a0fe"/></linearGradient></defs><g data-name="Layer 1" clip-path="url(#a)"><g clip-path="url(#b)"><path d="M-5.79-5.79h61.78v61.56H-5.79z" fill="url(#c)"/></g><path d="M14.77 15.26v1.51c.42-.97 1.4-1.57 2.46-1.51h1.36v1.91h-1.7c-1.51 0-2.09.71-2.09 2.45v2.76H18v1.79h-7.8v-1.79h2.22v-5.31H10.2v-1.81zM25 24.39c-2.19 0-4.26-1.26-4.26-4.67s2.07-4.65 4.26-4.65 4.25 1.24 4.25 4.65-2.08 4.67-4.25 4.67m0-7.57c-1.14 0-1.87.85-1.87 2.9s.73 2.91 1.87 2.91 1.87-.86 1.87-2.91-.73-2.9-1.87-2.9m14.62 1.66h-2.25c-.14-.95-.58-1.66-1.64-1.66S34 17.73 34 19.73s.66 2.9 1.72 2.9c.73 0 1.47-.36 1.69-1.72h2.29a3.87 3.87 0 0 1-4 3.48c-2.6 0-4.07-2-4.07-4.66s1.51-4.66 4.12-4.66c1.99-.08 3.7 1.42 3.87 3.41M14.3 36.5c-2.18 0-4.25-1.26-4.25-4.67s2.07-4.65 4.25-4.65 4.26 1.24 4.26 4.65-2.09 4.67-4.26 4.67m0-7.57c-1.14 0-1.87.85-1.87 2.9s.73 2.91 1.87 2.91 1.88-.86 1.88-2.91-.73-2.9-1.88-2.9m14.62 1.66h-2.25c-.13-.95-.58-1.66-1.64-1.66s-1.72.91-1.72 2.92.69 2.89 1.69 2.89c.73 0 1.48-.36 1.69-1.72H29a3.886 3.886 0 0 1-4 3.48c-2.6 0-4.07-2-4.07-4.65s1.5-4.67 4.12-4.67c2-.09 3.71 1.42 3.87 3.41m6.77 5.91c-2.18 0-4.25-1.26-4.25-4.67s2.07-4.65 4.25-4.65S40 28.42 40 31.83s-2.14 4.67-4.31 4.67m0-7.57c-1.14 0-1.87.85-1.87 2.9s.73 2.91 1.87 2.91 1.88-.86 1.88-2.91-.73-2.9-1.88-2.9" fill="#fff"/></g></svg>