<?xml version="1.0" encoding="UTF-8"?>
<svg id="Layer_2" data-name="Layer 2" xmlns="http://www.w3.org/2000/svg" xmlns:xlink="http://www.w3.org/1999/xlink" viewBox="0 0 50 50">
  <defs>
    <style>
      .cls-1 {
        clip-path: url(#clippath);
      }

      .cls-2 {
        fill: none;
      }

      .cls-2, .cls-3, .cls-4 {
        stroke-width: 0px;
      }

      .cls-5 {
        clip-path: url(#clippath-1);
      }

      .cls-3 {
        fill: #e50b7b;
      }

      .cls-4 {
        fill: #fff;
      }
    </style>
    <clipPath id="clippath">
      <circle class="cls-2" cx="25" cy="25" r="25"/>
    </clipPath>
    <clipPath id="clippath-1">
      <circle class="cls-2" cx="25" cy="25" r="25"/>
    </clipPath>
  </defs>
  <g id="Layer_1-2" data-name="Layer 1">
    <g class="cls-1">
      <g>
        <g class="cls-5">
          <rect class="cls-3" x="-5.79" y="-5.79" width="61.78" height="61.56"/>
        </g>
        <path class="cls-4" d="M14.77,15.26v1.51c.42-.97,1.4-1.57,2.46-1.51h1.36v1.91h-1.7c-1.51,0-2.09.71-2.09,2.45v2.76h3.2v1.79h-7.8v-1.79h2.22v-5.31h-2.22v-1.81h4.57Z"/>
        <path class="cls-4" d="M25,24.39c-2.19,0-4.26-1.26-4.26-4.67s2.07-4.65,4.26-4.65,4.25,1.24,4.25,4.65-2.08,4.67-4.25,4.67ZM25,16.82c-1.14,0-1.87.85-1.87,2.9s.73,2.91,1.87,2.91,1.87-.86,1.87-2.91-.73-2.9-1.87-2.9Z"/>
        <path class="cls-4" d="M39.62,18.48h-2.25c-.14-.95-.58-1.66-1.64-1.66s-1.73.91-1.73,2.91.66,2.9,1.72,2.9c.73,0,1.47-.36,1.69-1.72h2.29c-.2,2.03-1.96,3.56-4,3.48-2.6,0-4.07-2-4.07-4.66s1.51-4.66,4.12-4.66c1.99-.08,3.7,1.42,3.87,3.41Z"/>
        <path class="cls-4" d="M14.3,36.5c-2.18,0-4.25-1.26-4.25-4.67s2.07-4.65,4.25-4.65,4.26,1.24,4.26,4.65-2.09,4.67-4.26,4.67ZM14.3,28.93c-1.14,0-1.87.85-1.87,2.9s.73,2.91,1.87,2.91,1.88-.86,1.88-2.91-.73-2.9-1.88-2.9Z"/>
        <path class="cls-4" d="M28.92,30.59h-2.25c-.13-.95-.58-1.66-1.64-1.66s-1.72.91-1.72,2.92.69,2.89,1.69,2.89c.73,0,1.48-.36,1.69-1.72h2.31c-.21,2.03-1.96,3.55-4,3.48-2.6,0-4.07-2-4.07-4.65s1.5-4.67,4.12-4.67c2-.09,3.71,1.42,3.87,3.41Z"/>
        <path class="cls-4" d="M35.69,36.5c-2.18,0-4.25-1.26-4.25-4.67s2.07-4.65,4.25-4.65,4.31,1.24,4.31,4.65-2.14,4.67-4.31,4.67ZM35.69,28.93c-1.14,0-1.87.85-1.87,2.9s.73,2.91,1.87,2.91,1.88-.86,1.88-2.91-.73-2.9-1.88-2.9Z"/>
      </g>
    </g>
  </g>
</svg>